<?xml version="1.0" encoding="UTF-8"?>
<svg id="Layer_1" xmlns="http://www.w3.org/2000/svg" version="1.1" xmlns:xlink="http://www.w3.org/1999/xlink" viewBox="0 0 1000 1000">
  <!-- Generator: Adobe Illustrator 29.6.1, SVG Export Plug-In . SVG Version: 2.1.1 Build 9)  -->
  <defs>
    <linearGradient id="linear-gradient" x1="172.8" y1="108.32" x2="172.8" y2="1000" gradientUnits="userSpaceOnUse">
      <stop offset="0" stop-color="#3fb6ff"/>
      <stop offset="1" stop-color="#0058a0"/>
    </linearGradient>
    <linearGradient id="linear-gradient1" x1="500" y1="830.54" x2="500" y2="108.32" gradientUnits="userSpaceOnUse">
      <stop offset="0" stop-color="#2e83b8"/>
      <stop offset="1" stop-color="#003f73"/>
    </linearGradient>
    <linearGradient id="linear-gradient2" x1="492.21" y1="0" x2="492.21" y2="313" gradientUnits="userSpaceOnUse">
      <stop offset="0" stop-color="#ffac2a"/>
      <stop offset="1" stop-color="#ff703f"/>
    </linearGradient>
    <linearGradient id="linear-gradient3" x1="190.22" y1="108.32" x2="190.22" y2="1000" gradientTransform="translate(1017.42) rotate(-180) scale(1 -1)" gradientUnits="userSpaceOnUse">
      <stop offset="0" stop-color="#3fb6ff"/>
      <stop offset="1" stop-color="#0058a0"/>
    </linearGradient>
  </defs>
  <path d="M500,313l308.81-204.68-308.81,204.68Z" style="fill: none; stroke: #231f20; stroke-miterlimit: 10;"/>
  <polygon points="126.93 851.07 0 291.07 191.19 108.32 345.59 513.21 288.39 1000 126.93 851.07" style="fill: url(#linear-gradient);"/>
  <polyline points="500 313 191.19 108.32 345.59 513.21 337.07 588.67 500 830.54 663.27 588.67 654.41 513.21 808.81 108.32" style="fill: url(#linear-gradient1);"/>
  <polygon points="638.83 220.94 500 0 345.59 210.66 500 313 638.83 220.94" style="fill: url(#linear-gradient2);"/>
  <polygon points="711.61 1000 654.4 513.21 808.81 108.32 1000 291.07 873.07 851.07 711.61 1000" style="fill: url(#linear-gradient3);"/>
</svg>